<?xml version="1.0" standalone="no"?>
<!DOCTYPE svg PUBLIC "-//W3C//DTD SVG 20010904//EN"
 "http://www.w3.org/TR/2001/REC-SVG-20010904/DTD/svg10.dtd">
<svg version="1.0" xmlns="http://www.w3.org/2000/svg"
 width="720.000000pt" height="720.000000pt" viewBox="0 0 720.000000 720.000000"
 preserveAspectRatio="xMidYMid meet">
<metadata>
Created by potrace 1.14, written by Peter Selinger 2001-2017
</metadata>
<g transform="translate(0.000000,720.000000) scale(0.100000,-0.100000)"
fill="#000000" stroke="none">
<path d="M3585 7122 c-2 -2 -41 -5 -87 -7 -86 -4 -219 -14 -248 -20 -9 -2 -41
-6 -71 -9 -30 -3 -67 -8 -84 -11 -66 -11 -91 -15 -111 -19 -12 -2 -39 -7 -60
-10 -22 -4 -57 -11 -79 -17 -22 -6 -51 -13 -65 -16 -109 -19 -446 -131 -585
-194 -27 -13 -52 -24 -55 -24 -3 -1 -51 -24 -108 -53 -454 -229 -850 -574
-1137 -987 -77 -111 -185 -288 -185 -303 0 -5 -3 -12 -7 -14 -21 -9 -203 -417
-218 -488 -2 -8 -13 -43 -24 -76 -12 -34 -22 -70 -24 -80 -2 -11 -7 -26 -10
-34 -8 -19 -58 -227 -62 -260 -2 -14 -4 -25 -5 -25 -3 0 -12 -51 -26 -142 -3
-21 -7 -49 -9 -63 -9 -51 -14 -97 -20 -155 -3 -33 -8 -78 -10 -100 -7 -59 -15
-278 -15 -375 0 -47 0 -101 -1 -120 -1 -48 -1 -42 5 -175 5 -114 7 -144 22
-295 12 -118 22 -198 30 -245 3 -16 8 -45 10 -63 1 -18 6 -42 9 -53 4 -11 8
-32 10 -47 2 -15 11 -58 20 -97 8 -38 18 -81 21 -93 6 -29 30 -119 50 -187 8
-27 16 -57 18 -65 17 -63 100 -286 144 -385 59 -133 236 -455 262 -475 3 -3
21 -27 40 -55 37 -55 121 -166 156 -205 85 -95 158 -172 213 -224 35 -34 74
-71 87 -84 13 -13 24 -19 24 -15 0 4 5 1 10 -8 5 -9 35 -36 67 -60 32 -24 67
-52 77 -62 11 -9 26 -17 33 -17 7 0 13 -4 13 -8 0 -5 24 -24 53 -42 28 -19 54
-37 57 -40 22 -27 312 -178 445 -232 28 -11 59 -24 70 -29 77 -32 391 -127
445 -133 8 -1 26 -5 40 -9 14 -3 41 -9 60 -11 19 -3 59 -10 87 -15 29 -6 76
-13 105 -16 29 -3 60 -8 68 -10 20 -5 156 -16 255 -20 44 -2 80 -5 80 -5 0 -9
466 4 553 15 20 2 62 7 92 10 69 7 165 23 255 42 39 8 81 17 95 19 14 3 50 12
80 20 30 9 62 17 71 19 27 5 171 56 249 88 114 46 374 187 400 217 3 3 19 14
35 24 84 53 282 241 366 347 30 37 57 68 61 68 3 1 10 -14 14 -31 4 -18 8 -35
9 -38 2 -7 43 -143 70 -230 43 -140 76 -249 80 -267 2 -10 13 -47 24 -82 12
-35 21 -69 21 -77 0 -7 10 -16 22 -19 26 -9 94 -9 108 0 5 3 10 2 10 -4 0 -6
11 -6 30 -1 17 5 32 5 35 0 3 -5 16 -5 30 0 15 6 27 6 30 0 3 -6 15 -6 30 0
15 6 27 6 30 0 3 -6 15 -6 30 0 15 6 27 6 30 0 3 -6 15 -6 30 0 15 6 27 6 30
0 3 -6 15 -6 29 0 13 5 26 6 30 3 8 -8 96 -9 96 -2 0 4 16 3 35 -1 19 -4 35
-5 35 -1 0 5 19 5 43 1 23 -3 57 -3 75 1 17 3 32 3 32 -2 0 -4 12 -4 28 0 15
5 37 4 50 0 12 -5 22 -4 22 0 0 5 16 5 35 1 19 -4 35 -4 35 0 0 5 9 6 20 3 11
-3 30 -3 42 0 l23 6 0 1931 0 1930 -1578 0 -1578 0 1 -32 c0 -18 0 -56 -1 -85
-1 -28 2 -56 6 -62 3 -6 1 -11 -5 -11 -6 0 -8 -5 -5 -11 7 -10 8 -74 2 -134
-1 -16 1 -42 5 -57 3 -15 2 -30 -3 -34 -5 -3 -7 -10 -3 -15 3 -6 6 -33 5 -60
-1 -27 -1 -71 -2 -98 -1 -27 2 -54 6 -60 3 -6 1 -11 -5 -11 -6 0 -8 -5 -5 -11
7 -10 8 -74 2 -134 -1 -16 1 -42 5 -57 3 -15 2 -30 -3 -34 -5 -3 -7 -10 -3
-15 3 -6 6 -33 5 -60 -1 -27 -1 -71 -2 -98 -1 -27 2 -54 6 -60 3 -6 1 -11 -5
-11 -6 0 -8 -5 -5 -11 7 -10 10 -93 5 -114 -5 -22 1 -31 23 -33 53 -6 177 -6
177 -1 0 3 20 3 45 -1 25 -4 45 -4 45 1 0 4 16 3 35 -1 19 -4 35 -4 35 0 0 5
8 6 18 4 29 -7 142 -9 142 -3 0 3 20 3 45 -1 25 -4 45 -4 45 1 0 4 16 3 35 -1
19 -4 35 -5 35 -1 0 7 95 5 107 -2 5 -3 15 -2 23 3 8 5 21 5 30 0 9 -5 22 -5
30 0 7 4 24 4 36 0 14 -6 26 -5 29 0 3 6 15 6 30 0 15 -6 27 -6 30 0 3 6 15 6
30 0 15 -6 27 -6 30 0 3 6 15 6 30 0 15 -6 27 -6 30 0 3 6 15 6 30 0 15 -6 27
-6 30 0 3 6 15 6 30 0 15 -6 27 -6 30 0 3 6 15 6 30 0 15 -6 27 -6 30 0 3 6
15 6 30 0 15 -6 27 -6 30 0 3 6 15 6 30 0 15 -6 27 -6 30 0 3 6 15 6 30 0 15
-6 27 -6 30 0 3 6 15 6 29 0 13 -5 26 -7 28 -5 6 7 1 -313 -6 -370 -9 -71 -42
-200 -69 -266 -28 -69 -97 -189 -109 -189 -4 0 -8 -6 -8 -12 0 -13 -197 -208
-211 -208 -4 0 -14 -6 -21 -13 -52 -50 -286 -166 -388 -192 -80 -21 -240 -56
-278 -60 -26 -4 -54 -8 -62 -10 -8 -3 -46 -7 -85 -11 -38 -3 -83 -8 -100 -10
-45 -5 -305 -4 -345 1 -19 2 -64 7 -100 10 -36 3 -73 8 -82 11 -10 3 -30 7
-45 10 -91 16 -249 67 -341 110 -40 19 -74 34 -76 34 -10 0 -171 104 -174 111
-2 5 -8 9 -14 9 -27 0 -225 184 -307 285 -64 78 -161 219 -161 234 0 5 -4 11
-8 13 -10 4 -122 233 -122 250 0 7 -6 25 -14 39 -24 46 -96 294 -112 384 -2
14 -6 37 -9 53 -19 105 -34 214 -40 293 -2 24 -4 44 -5 44 -8 0 -12 464 -5
565 8 121 14 197 20 230 3 19 9 64 15 100 19 126 21 135 26 152 3 9 7 26 9 37
3 12 7 30 10 41 3 11 7 29 9 40 3 11 7 24 10 28 3 5 7 22 10 38 9 46 78 228
90 236 6 4 8 8 3 8 -22 0 142 289 236 415 71 95 271 295 294 295 9 0 14 3 10
6 -18 18 348 221 431 239 10 2 43 13 75 24 31 11 57 18 57 15 0 -3 8 0 18 5
10 5 38 12 62 16 25 4 47 8 50 10 4 2 33 6 66 10 33 3 71 8 84 10 30 6 300 6
350 0 19 -2 69 -7 110 -10 41 -4 78 -9 81 -11 4 -2 24 -6 45 -10 20 -3 47 -10
60 -14 12 -5 24 -7 26 -4 7 6 258 -81 288 -101 8 -5 39 -22 67 -37 45 -23 186
-114 218 -140 101 -82 202 -183 243 -243 56 -82 48 -80 143 -41 124 50 162 66
184 76 86 37 417 170 425 170 5 0 10 4 10 8 0 5 6 9 13 9 10 0 217 83 282 113
42 19 321 132 353 143 17 6 32 14 32 19 0 9 -133 214 -164 253 -9 11 -30 38
-47 60 -136 178 -410 432 -584 543 -27 17 -55 35 -61 40 -5 5 -21 15 -35 22
-13 7 -26 16 -29 19 -12 15 -300 161 -316 161 -8 0 -14 5 -14 10 0 6 -8 10
-18 10 -10 0 -22 4 -28 9 -27 25 -420 158 -514 174 -14 3 -54 12 -90 21 -66
16 -179 37 -215 40 -11 2 -33 5 -50 9 -16 3 -61 9 -98 12 -37 4 -77 8 -89 10
-56 11 -564 26 -573 17z"/>
</g>
</svg>
